<svg xmlns="http://www.w3.org/2000/svg" width="1200" height="675" viewBox="0 0 1200 675" fill="none">
  <title>Analítica operacional: indicadores, barras y tendencia</title>
  <defs>
    <radialGradient id="analitica-operacional-psa-ambient" cx="0.5" cy="0.5" r="0.65">
      <stop stop-color="#1D4ED8" stop-opacity="0.55"/>
      <stop offset="1" stop-color="#0F172A" stop-opacity="0"/>
    </radialGradient>
    <linearGradient id="analitica-operacional-psa-area" x1="0" y1="0" x2="0" y2="1">
      <stop stop-color="#60A5FA" stop-opacity="0.3"/>
      <stop offset="1" stop-color="#60A5FA" stop-opacity="0"/>
    </linearGradient>
    <pattern id="analitica-operacional-psa-grid" width="40" height="40" patternUnits="userSpaceOnUse">
      <path d="M40 0H0V40" stroke="#60A5FA" stroke-opacity="0.08"/>
    </pattern>
  </defs>
  <rect width="1200" height="675" fill="#0F172A"/>
  <rect width="1200" height="675" fill="url(#analitica-operacional-psa-ambient)"/>
  <rect width="1200" height="675" fill="url(#analitica-operacional-psa-grid)"/>
  <rect x="96" y="84" width="1008" height="507" rx="32" stroke="#60A5FA" stroke-opacity="0.22"/>
  <g font-family="Poppins, Inter, ui-sans-serif, system-ui, sans-serif">
    <text x="144" y="146" fill="#60A5FA" font-size="18" letter-spacing="5">PSA / ANALYTICS</text>
    <text x="1056" y="146" fill="#64748B" font-size="18" text-anchor="end">01</text>
    <text x="144" y="550" fill="#94A3B8" font-size="16" letter-spacing="3">OPERATIONAL INTELLIGENCE</text>
  </g>
  <rect x="224" y="190" width="752" height="306" rx="24" fill="#0F172A" stroke="#1D4ED8" stroke-width="2"/>
  <g fill="#1E3A8A" stroke="#60A5FA" stroke-opacity="0.3">
    <rect x="248" y="212" width="224" height="76" rx="12"/>
    <rect x="488" y="212" width="224" height="76" rx="12"/>
    <rect x="728" y="212" width="224" height="76" rx="12"/>
  </g>
  <g stroke="#60A5FA" stroke-width="6" stroke-linecap="round">
    <path d="M268 234h42m-42 26h70"/>
    <path d="M508 234h42m-42 26h70"/>
    <path d="M748 234h42m-42 26h70"/>
  </g>
  <g stroke="#F8FAFC" stroke-width="3" stroke-linecap="round" stroke-linejoin="round">
    <path d="m368 263 18-15 16 7 18-22 28 4"/>
    <path d="m608 264 18-6 16-18 18 7 28-16"/>
  </g>
  <circle cx="904" cy="250" r="21" stroke="#60A5FA" stroke-opacity="0.3" stroke-width="6"/>
  <path d="M904 229a21 21 0 1 1-21 21" stroke="#F59E0B" stroke-width="6" stroke-linecap="round"/>
  <g fill="#1F2937">
    <rect x="248" y="304" width="264" height="168" rx="12"/>
    <rect x="528" y="304" width="424" height="168" rx="12"/>
  </g>
  <g stroke="#94A3B8" stroke-opacity="0.16">
    <path d="M268 334h224m-224 40h224m-224 40h224m-224 40h224"/>
    <path d="M548 334h384m-384 40h384m-384 40h384m-384 40h384"/>
    <path d="M608 324v130m80-130v130m80-130v130m80-130v130"/>
  </g>
  <g fill="#1D4ED8">
    <rect x="272" y="404" width="28" height="50" rx="5"/>
    <rect x="316" y="377" width="28" height="77" rx="5"/>
    <rect x="360" y="391" width="28" height="63" rx="5"/>
    <rect x="404" y="353" width="28" height="101" rx="5"/>
  </g>
  <rect x="448" y="327" width="28" height="127" rx="5" fill="#60A5FA"/>
  <path d="m552 432 52-26 48 12 56-43 46 11 58-40 54 10 62-30v128H552Z" fill="url(#analitica-operacional-psa-area)"/>
  <path d="m552 432 52-26 48 12 56-43 46 11 58-40 54 10 62-30" stroke="#60A5FA" stroke-width="5" stroke-linecap="round" stroke-linejoin="round"/>
  <g fill="#0F172A" stroke="#60A5FA" stroke-width="3">
    <circle cx="604" cy="406" r="5"/>
    <circle cx="708" cy="375" r="5"/>
    <circle cx="812" cy="346" r="5"/>
  </g>
  <circle cx="928" cy="326" r="7" fill="#F59E0B"/>
</svg>
