<svg xmlns="http://www.w3.org/2000/svg" width="1200" height="675" viewBox="0 0 1200 675" fill="none" role="img" aria-label="GestorCOC v2.0">
  <title>GestorCOC v2.0 - Gestion operativa</title>
  <defs>
    <radialGradient id="gestorcoc-v2-0-ambient" cx="0.5" cy="0.42" r="0.7">
      <stop stop-color="#14B8A6" stop-opacity="0.38"/>
      <stop offset="1" stop-color="#0F172A" stop-opacity="0"/>
    </radialGradient>
    <pattern id="gestorcoc-v2-0-grid" width="40" height="40" patternUnits="userSpaceOnUse">
      <path d="M40 0H0V40" stroke="#14B8A6" stroke-opacity="0.07"/>
    </pattern>
  </defs>
  <rect width="1200" height="675" fill="#0F172A"/>
  <rect width="1200" height="675" fill="url(#gestorcoc-v2-0-ambient)"/>
  <rect width="1200" height="675" fill="url(#gestorcoc-v2-0-grid)"/>
  <rect x="96" y="152" width="1008" height="372" rx="28" stroke="#14B8A6" stroke-opacity="0.24"/>
  <g fill="#0F172A" stroke="#14B8A6" stroke-width="2.5"><rect x="316" y="196" width="168" height="294" rx="14"/><rect x="516" y="196" width="168" height="294" rx="14"/><rect x="716" y="196" width="168" height="294" rx="14"/></g><g fill="#14B8A6" fill-opacity="0.3"><rect x="336" y="224" width="128" height="42" rx="8"/><rect x="336" y="282" width="128" height="42" rx="8"/><rect x="336" y="340" width="128" height="42" rx="8"/><rect x="536" y="224" width="128" height="42" rx="8"/><rect x="536" y="282" width="128" height="42" rx="8"/><rect x="736" y="224" width="128" height="42" rx="8"/><rect x="736" y="282" width="128" height="42" rx="8"/><rect x="736" y="340" width="128" height="42" rx="8"/><rect x="736" y="398" width="128" height="42" rx="8"/></g>
  <g font-family="Poppins, Inter, ui-sans-serif, system-ui, sans-serif">
    <text x="144" y="196" fill="#14B8A6" font-size="20" letter-spacing="5">WORKFLOW / KANBAN</text>
    <text x="1056" y="196" fill="#64748B" font-size="20" text-anchor="end">18</text>
    <text x="144" y="506" fill="#94A3B8" font-size="19" letter-spacing="2">Gestion operativa</text>
  </g>
</svg>
